<?xml version="1.0" standalone="no"?><!DOCTYPE svg PUBLIC "-//W3C//DTD SVG 1.1//EN" "http://www.w3.org/Graphics/SVG/1.1/DTD/svg11.dtd"><svg t="1719328971497" class="icon" viewBox="0 0 1024 1024" version="1.1" xmlns="http://www.w3.org/2000/svg" p-id="9051" xmlns:xlink="http://www.w3.org/1999/xlink" width="200" height="200"><path d="M645.778286 73.106286v75.154285H228.882286c-43.154286 0-78.573714 34.176-80.566857 77.348572l-0.073143 3.84V795.062857c0 43.154286 34.157714 79.067429 76.854857 81.097143l3.785143 0.091429h566.052571c43.154286 0 79.085714-34.688 81.097143-77.403429l0.091429-3.785143h0.054857V378.678857h74.605714v416.365714a155.684571 155.684571 0 0 1-151.113143 155.739429l-4.681143 0.073143H228.882286C144.859429 950.857143 75.648 883.693714 73.142857 799.744l-0.073143-4.681143V229.449143c0-84.553143 67.693714-153.782857 151.168-156.269714l4.644572-0.073143h416.896z m-57.289143 575.744c19.474286 0 34.121143 4.224 43.995428 12.836571 9.088 7.899429 14.628571 19.053714 15.433143 30.976l0.091429 3.254857-31.323429 1.371429c-1.371429-7.954286-4.278857-13.659429-8.667428-17.225143-3.84-3.072-9.398857-4.754286-16.64-5.12l-3.218286-0.091429a36.096 36.096 0 0 0-21.449143 5.595429 11.154286 11.154286 0 0 0-4.992 9.6 12.233143 12.233143 0 0 0 4.717714 9.435429c3.949714 3.346286 13.549714 6.765714 28.8 10.368 11.702857 2.395429 23.04 6.162286 33.846858 11.190857 7.04 3.657143 12.982857 9.106286 17.188571 15.798857 4.333714 7.497143 6.473143 16.091429 6.198857 24.740571 0 8.886857-2.596571 17.572571-7.405714 25.033143a44.891429 44.891429 0 0 1-21.028572 17.28c-9.051429 3.785143-20.297143 5.650286-33.792 5.650286-19.638857 0-34.724571-4.571429-45.257142-13.659429-9.691429-8.301714-15.725714-20.114286-18.267429-35.401143l-0.603429-4.260571 30.555429-2.980571c1.865143 10.276571 5.595429 17.792 11.190857 22.601142 6.454857 5.12 14.555429 7.68 22.765714 7.259429 10.093714 0 17.737143-2.194286 22.765715-6.473143 4.754286-3.565714 7.588571-9.106286 7.68-15.049143a13.897143 13.897143 0 0 0-3.181715-9.380571 25.709714 25.709714 0 0 0-8.777142-5.833143l-3.748572-1.28-3.309714-1.005714-4.461714-1.225143-16.073143-4.150857c-16.822857-4.114286-28.635429-9.270857-35.382857-15.36-9.545143-8.502857-14.317714-18.925714-14.317715-31.268572 0-7.862857 2.304-15.542857 6.637715-22.107428 4.498286-6.912 10.971429-12.123429 19.419428-15.725715 8.448-3.638857 18.651429-5.394286 30.610286-5.394285z m-336.402286 2.578285v61.110858h61.494857v-61.110858h31.378286v155.373715H313.6v-67.931429h-61.494857v67.931429h-31.323429v-155.373715h31.323429z m203.209143-0.054857l62.208 155.428572h-34.066286l-13.604571-35.291429h-62.098286l-12.836571 35.291429h-33.298286l60.507429-155.428572h33.188571z m255.085714 0.054857v61.110858h61.513143v-61.110858h31.378286v155.373715h-31.378286v-67.931429H710.4v67.931429h-31.323429v-155.373715h31.323429z m-272.091428 36.260572l-20.955429 57.654857h42.404572l-21.449143-57.654857z m334.262857-187.392a30.72 30.72 0 0 1 2.651428 61.330286l-2.651428 0.109714H251.483429a30.72 30.72 0 0 1-2.651429-61.330286l2.651429-0.109714H772.571429z m-281.234286-129.517714a30.72 30.72 0 0 1 2.669714 61.330285l-2.651428 0.109715H251.483429a30.72 30.72 0 0 1-2.651429-61.330286l2.651429-0.109714H491.337143zM841.142857 36.571429a97.554286 97.554286 0 0 1 96.182857 81.261714h1.334857A48.768 48.768 0 0 1 987.428571 166.601143v113.773714A48.768 48.768 0 0 1 938.660571 329.142857H743.625143a48.768 48.768 0 0 1-48.676572-45.677714L694.857143 280.374857V166.601143a48.768 48.768 0 0 1 48.768-48.768h1.334857A97.554286 97.554286 0 0 1 841.142857 36.571429zM491.337143 241.243429a30.72 30.72 0 0 1 2.651428 61.330285l-2.651428 0.128H251.483429a30.72 30.72 0 0 1-2.651429-61.330285l2.651429-0.128H491.337143z m447.323428-90.88H743.625143a16.256 16.256 0 0 0-16.274286 16.237714v113.773714c0 8.978286 7.296 16.274286 16.274286 16.274286h195.035428c8.978286 0 16.274286-7.296 16.274286-16.274286V166.601143a16.256 16.256 0 0 0-16.274286-16.256z m-89.398857 40.612571c5.430857 0 8.137143 2.724571 8.137143 8.137143v48.768c0 5.412571-2.706286 8.118857-8.137143 8.118857h-16.237714c-5.430857 0-8.137143-2.706286-8.137143-8.118857v-48.768c0-5.412571 2.706286-8.137143 8.137143-8.137143h16.237714zM841.142857 69.083429a65.042286 65.042286 0 0 0-62.957714 48.749714h125.915428A65.042286 65.042286 0 0 0 841.142857 69.083429z" fill="#0a66c2" p-id="9052"></path></svg>